<?xml version="1.0" encoding="utf-8"?>
<!-- Generator: Adobe Illustrator 16.0.0, SVG Export Plug-In . SVG Version: 6.00 Build 0)  -->
<!DOCTYPE svg PUBLIC "-//W3C//DTD SVG 1.1//EN" "http://www.w3.org/Graphics/SVG/1.1/DTD/svg11.dtd">
<svg version="1.1" id="Layer_1" xmlns="http://www.w3.org/2000/svg" xmlns:xlink="http://www.w3.org/1999/xlink" x="0px" y="0px"
	 width="792.957px" height="308.612px" viewBox="0 0 792.957 308.612" enable-background="new 0 0 792.957 308.612"
	 xml:space="preserve">
<g>
	<path fill-rule="evenodd" clip-rule="evenodd" fill="#B45364" d="M161.461,156.641L161.461,156.641
		c-1.203-0.305-2.473-0.371-3.723-0.191c-1.203,0.18-2.398,0.59-3.52,1.254c-1.117,0.668-2.047,1.52-2.773,2.488
		c-0.766,1.016-1.305,2.164-1.617,3.367l0,0c-0.301,1.207-0.375,2.473-0.188,3.727c0.176,1.203,0.586,2.398,1.25,3.516
		s1.52,2.051,2.492,2.781c1.012,0.758,2.16,1.301,3.363,1.609h0.004c1.207,0.305,2.473,0.375,3.723,0.195
		c1.207-0.176,2.398-0.59,3.52-1.254c1.117-0.668,2.051-1.52,2.777-2.496c0.762-1.008,1.301-2.156,1.609-3.359l0.004-0.004
		c0.301-1.207,0.375-2.477,0.188-3.727c-0.176-1.199-0.586-2.398-1.25-3.516c-0.668-1.113-1.523-2.051-2.492-2.777
		C163.816,157.492,162.668,156.949,161.461,156.641z"/>
	<path fill-rule="evenodd" clip-rule="evenodd" fill="#B45364" d="M54.34,52.121L54.34,52.121c-1.207-0.305-2.473-0.375-3.727-0.195
		c-1.199,0.18-2.398,0.594-3.516,1.258s-2.051,1.52-2.781,2.488c-0.758,1.012-1.301,2.16-1.609,3.363v0.004
		c-0.305,1.207-0.379,2.477-0.191,3.727c0.18,1.199,0.59,2.395,1.254,3.516c0.668,1.117,1.52,2.051,2.492,2.781
		c1.008,0.754,2.16,1.301,3.363,1.605l0,0c1.207,0.309,2.477,0.379,3.727,0.195c1.203-0.176,2.398-0.59,3.516-1.254
		s2.051-1.52,2.781-2.488c0.758-1.016,1.301-2.16,1.609-3.367h0.004c0.301-1.207,0.371-2.477,0.188-3.727
		c-0.176-1.203-0.59-2.398-1.25-3.516c-0.668-1.121-1.523-2.055-2.492-2.781C56.695,52.973,55.547,52.43,54.34,52.121z"/>
	<path fill-rule="evenodd" clip-rule="evenodd" fill="#464749" d="M113.434,81.992L113.434,81.992
		c-1.207-0.301-2.477-0.371-3.727-0.191c-1.203,0.18-2.398,0.59-3.516,1.258c-1.117,0.664-2.051,1.516-2.781,2.488
		c-0.758,1.012-1.301,2.16-1.609,3.363v0.004c-0.305,1.203-0.375,2.473-0.191,3.727c0.176,1.199,0.59,2.398,1.254,3.512
		c0.664,1.117,1.516,2.055,2.492,2.781c1.012,0.758,2.156,1.305,3.363,1.609l0,0c1.207,0.309,2.477,0.379,3.727,0.191
		c1.199-0.176,2.398-0.586,3.516-1.25s2.051-1.52,2.781-2.492c0.758-1.012,1.301-2.16,1.609-3.367l0,0
		c0.305-1.203,0.375-2.473,0.191-3.723c-0.176-1.203-0.59-2.402-1.254-3.516c-0.664-1.121-1.516-2.051-2.488-2.781
		C115.785,82.848,114.641,82.305,113.434,81.992z"/>
	<path fill-rule="evenodd" clip-rule="evenodd" fill="#B45364" d="M87.902,132.652L56.027,79.051
		c-0.477,0.109-0.953,0.195-1.43,0.266c-2.371,0.34-4.777,0.203-7.059-0.379h-0.004h-0.02v-0.004
		c-2.289-0.582-4.465-1.609-6.383-3.039c-1.852-1.383-3.469-3.141-4.715-5.238c-1.25-2.102-2.027-4.363-2.355-6.648
		c-0.344-2.367-0.203-4.77,0.379-7.059l-0.004-0.004l0.008-0.02l0,0c0.582-2.285,1.609-4.465,3.039-6.383
		c1.383-1.848,3.141-3.465,5.242-4.715c2.098-1.246,4.359-2.023,6.641-2.352c2.371-0.344,4.777-0.203,7.063,0.379l0,0h0.02v0.004
		c2.289,0.582,4.465,1.605,6.387,3.035c1.852,1.387,3.465,3.145,4.715,5.242c1.246,2.102,2.023,4.359,2.352,6.645
		c0.344,2.371,0.203,4.773-0.379,7.059l0.004,0.008l-0.004,0.016H69.52c-0.582,2.289-1.605,4.465-3.039,6.383
		c-0.195,0.266-0.402,0.523-0.613,0.777c16.473,27.457,33.945,56.605,51.426,85.762l2.25-8.852l6.605-26.008l-6.367-10.711
		l-2.855-4.801c-1.063,0.359-2.148,0.617-3.234,0.777c-2.371,0.34-4.773,0.203-7.063-0.375h-0.004l-0.02-0.008l0,0
		c-2.285-0.582-4.461-1.609-6.383-3.039c-1.848-1.383-3.465-3.141-4.715-5.242c-1.246-2.098-2.02-4.359-2.352-6.645
		c-0.34-2.367-0.203-4.773,0.375-7.059l0,0l0.008-0.023l0,0c0.582-2.285,1.605-4.465,3.039-6.383
		c1.379-1.852,3.141-3.465,5.238-4.715c2.102-1.25,4.359-2.023,6.645-2.352c2.371-0.344,4.777-0.203,7.063,0.371l0,0l0.02,0.008l0,0
		c2.285,0.586,4.469,1.609,6.387,3.043c1.852,1.379,3.465,3.141,4.715,5.238c1.246,2.098,2.02,4.359,2.352,6.648
		c0.34,2.367,0.203,4.77-0.379,7.059l0,0l-0.004,0.02l0,0c-0.582,2.285-1.609,4.469-3.039,6.387
		c-0.656,0.879-1.398,1.703-2.223,2.461l10.02,16.848l0.789,1.332l-0.383,1.5l-11.07,43.551l37.137,61.938l2.68-7.828l9.418-27.586
		l-6.012-10.105l-0.75-1.254c-1.133,0.406-2.293,0.688-3.461,0.852c-2.367,0.348-4.773,0.207-7.059-0.367h-0.004l-0.016-0.012l0,0
		c-2.289-0.582-4.469-1.605-6.387-3.035c-1.848-1.383-3.465-3.148-4.715-5.242c-1.25-2.098-2.023-4.359-2.352-6.645
		c-0.344-2.371-0.207-4.777,0.379-7.059h-0.004l0.004-0.023l0,0c0.586-2.285,1.609-4.465,3.043-6.383
		c1.379-1.852,3.137-3.469,5.238-4.715c2.098-1.25,4.359-2.027,6.645-2.355c2.367-0.34,4.773-0.203,7.063,0.379v-0.004l0.02,0.008
		l0,0c2.285,0.582,4.465,1.609,6.383,3.039c1.852,1.383,3.469,3.145,4.715,5.242s2.023,4.355,2.355,6.641
		c0.34,2.375,0.203,4.781-0.379,7.066h0.004l-0.008,0.02l0,0c-0.586,2.285-1.609,4.461-3.039,6.383
		c-0.609,0.813-1.297,1.586-2.047,2.297l7.68,12.918l0.871,1.457l-0.563,1.664l-14.691,43l6.086,10.148
		C267.816,152.395,186.758,33.973,16.336,0C8.945,27.137,3.625,55.84,1.301,83.918L0.715,98.074c0.09-0.859,0.246-1.715,0.457-2.555
		l0,0l0.004-0.02l0,0c0.582-2.285,1.609-4.465,3.043-6.383c1.379-1.852,3.141-3.465,5.234-4.715c2.102-1.25,4.359-2.027,6.648-2.352
		c2.367-0.344,4.773-0.207,7.063,0.375l0,0h0.016v0.008c2.289,0.578,4.469,1.602,6.391,3.035c1.848,1.383,3.465,3.145,4.711,5.238
		c1.25,2.102,2.023,4.363,2.352,6.648c0.344,2.371,0.203,4.773-0.375,7.059v0.004l-0.004,0.02l0,0
		c-0.586,2.285-1.609,4.465-3.043,6.383c-0.91,1.223-1.984,2.34-3.215,3.32l6.059,10.188L87.902,132.652z"/>
	<path fill-rule="evenodd" clip-rule="evenodd" fill="#464749" d="M0,115.27c0.242,90.516,37.465,164.914,146.148,142.508
		c3.355,5.637,7.602,14.867,10.238,18.738c-1.453,2.277-2.434,4.805-2.918,7.426l-0.004,0.02
		c-0.973,5.258,0.059,10.879,3.316,15.621c3.258,4.73,8.141,7.711,13.391,8.676l0.027,0.004c5.254,0.973,10.871-0.059,15.613-3.313
		c4.734-3.266,7.703-8.148,8.68-13.398l0.004-0.027c0.973-5.246-0.059-10.863-3.316-15.609c-3.262-4.738-8.141-7.707-13.391-8.684
		h-0.027c-2.547-0.469-5.184-0.469-7.758,0.027c-9.031-14.91-19.926-30.758-29.441-46.055l-45.211-11.488l-1.504-0.383l-0.789-1.328
		l-9.527-16.02c-0.703,0.191-1.418,0.336-2.129,0.438c-2.371,0.344-4.773,0.207-7.063-0.375l0,0l-0.02-0.004l0,0
		c-2.285-0.582-4.465-1.609-6.387-3.043c-1.848-1.379-3.465-3.141-4.711-5.238c-1.25-2.102-2.023-4.359-2.355-6.648
		c-0.344-2.367-0.203-4.77,0.375-7.059l0,0l0.008-0.02l0,0c0.48-1.883,1.262-3.695,2.32-5.352c0.23-0.352,0.469-0.695,0.719-1.035
		c1.383-1.848,3.141-3.465,5.242-4.711c2.098-1.25,4.359-2.023,6.645-2.352c2.367-0.344,4.773-0.207,7.059,0.371l0,0l0.023,0.008
		l0,0c2.289,0.586,4.461,1.609,6.383,3.039c1.848,1.379,3.461,3.141,4.711,5.242c1.25,2.098,2.027,4.359,2.359,6.645
		c0.336,2.367,0.203,4.777-0.379,7.059l0,0l-0.004,0.023l0,0c-0.582,2.281-1.609,4.465-3.043,6.383
		c-0.879,1.172-1.906,2.258-3.082,3.215l8.492,14.277l33.414,8.496l3.051,0.77l-42.289-71.102v-0.004l-59.734-9.59l-1.73-0.281
		l-0.887-1.492l-7.227-12.152c-0.652,0.168-1.309,0.301-1.965,0.395c-2.367,0.344-4.773,0.203-7.059-0.375h-0.004l-0.016-0.008
		h-0.004c-2.289-0.578-4.465-1.605-6.383-3.039c-1.848-1.379-3.469-3.141-4.715-5.242c-1.25-2.094-2.023-4.359-2.355-6.641
		c-0.098-0.715-0.16-1.438-0.176-2.16L0,115.27L0,115.27z M176.145,276.035c2.988,0.555,5.77,2.258,7.637,4.973
		c1.867,2.707,2.461,5.918,1.91,8.906c-0.555,2.98-2.254,5.766-4.969,7.629c-2.711,1.871-5.918,2.461-8.91,1.91
		c-2.984-0.551-5.766-2.25-7.633-4.965c-1.867-2.711-2.461-5.918-1.91-8.906c0.555-2.988,2.254-5.773,4.969-7.637
		S173.156,275.484,176.145,276.035z"/>
	<path fill-rule="evenodd" clip-rule="evenodd" fill="#464749" d="M81.148,165.227L81.148,165.227
		c-1.207-0.305-2.473-0.379-3.723-0.191c-1.203,0.176-2.402,0.586-3.52,1.25s-2.051,1.523-2.781,2.492
		c-0.758,1.016-1.301,2.16-1.609,3.367l0,0c-0.301,1.207-0.375,2.477-0.191,3.727c0.18,1.199,0.59,2.398,1.254,3.516
		s1.52,2.051,2.492,2.777c1.012,0.762,2.16,1.305,3.363,1.613h0.004c1.203,0.301,2.473,0.379,3.723,0.195
		c1.203-0.184,2.398-0.598,3.516-1.262s2.051-1.512,2.781-2.488c0.762-1.008,1.301-2.16,1.609-3.367l0,0
		c0.305-1.203,0.375-2.477,0.191-3.727c-0.176-1.199-0.59-2.395-1.254-3.516c-0.664-1.109-1.52-2.047-2.488-2.777
		C83.504,166.082,82.355,165.535,81.148,165.227z"/>
	<path fill-rule="evenodd" clip-rule="evenodd" fill="#464749" d="M21.07,90.695v-0.004c-1.207-0.301-2.473-0.375-3.727-0.191
		c-1.199,0.176-2.398,0.594-3.516,1.258c-1.117,0.66-2.047,1.516-2.777,2.488c-0.762,1.012-1.301,2.16-1.609,3.363H9.438
		c-0.301,1.207-0.375,2.477-0.188,3.727c0.176,1.203,0.586,2.402,1.254,3.52c0.664,1.113,1.516,2.051,2.488,2.777
		c1.008,0.758,2.16,1.305,3.367,1.613l0,0c1.203,0.301,2.473,0.375,3.723,0.188c1.203-0.176,2.398-0.586,3.516-1.25
		c1.121-0.668,2.051-1.523,2.781-2.492c0.762-1.012,1.301-2.16,1.609-3.363l0.004-0.004c0.301-1.203,0.371-2.477,0.188-3.727
		c-0.172-1.199-0.586-2.395-1.254-3.516c-0.664-1.117-1.52-2.051-2.488-2.781C23.426,91.543,22.277,91.004,21.07,90.695z"/>
</g>
<g>
	<path fill-rule="evenodd" clip-rule="evenodd" fill="#464749" d="M561.16,188.867c-1.074-0.434-2.02-1.059-2.863-1.871
		l-0.145-0.141c-0.809-0.84-1.434-1.789-1.863-2.859c-0.441-1.078-0.656-2.195-0.656-3.371c0-1.094,0.203-2.156,0.594-3.191
		l-0.008-0.008c0.289-0.75,0.684-1.453,1.191-2.117l34.531-68.859l7.461-14.867c2.246-4.48,4.23-11.148,8.645-12.922
		c1.063-0.43,2.176-0.648,3.336-0.648c5.379,0,6.688,2.43,8.227,5.094l1.227,2.457l1.031,2.055l44.82,89.379
		c2.258,4.5,0.098,9.781-5.078,11.871c-1.074,0.434-2.195,0.652-3.359,0.652c-1.227,0-2.383-0.242-3.461-0.703
		c-0.992-0.43-1.883-1.039-2.664-1.82c-0.887-0.82-1.563-1.766-2.031-2.844c-0.281-0.648-0.477-1.313-0.594-1.988l-5.367-10.664
		h-65.004l-3.648,7.266l-1.77,3.527C570.82,188.051,566.602,191.051,561.16,188.867L561.16,188.867z M611.68,106.691l-23.633,47.047
		h47.188L611.68,106.691z"/>
	<path fill-rule="evenodd" clip-rule="evenodd" fill="#464749" d="M502.672,174.453c0.781,0.848,1.391,1.793,1.809,2.852
		c0.41,1.059,0.625,2.164,0.625,3.32c0,1.211-0.234,2.348-0.684,3.434c-0.438,1.047-1.063,1.973-1.859,2.797l-0.063,0.086
		c-0.832,0.832-1.82,1.477-2.93,1.926c-1.078,0.434-2.199,0.652-3.359,0.652c-1.223,0-2.375-0.242-3.461-0.703
		c-0.926-0.402-1.77-0.969-2.516-1.68c-0.195-0.156-0.363-0.313-0.52-0.469c-0.16-0.156-0.313-0.336-0.457-0.52l-43.516-43.492
		h-34.383v37.969c0,1.176-0.219,2.293-0.648,3.371c-0.43,1.074-1.055,2.02-1.867,2.859l-0.145,0.141
		c-0.848,0.82-1.785,1.445-2.84,1.871h-0.023c-1.063,0.434-2.176,0.652-3.348,0.652s-2.293-0.219-3.367-0.652
		s-2.02-1.059-2.859-1.871l-0.145-0.141c-0.813-0.84-1.438-1.789-1.867-2.859c-0.438-1.078-0.652-2.195-0.652-3.371v-55.73h17.762
		h26.23h35.191c2.07,0,3.945-0.348,5.617-1.039c1.68-0.695,3.246-1.766,4.691-3.211l-0.012-0.012c1.461-1.457,2.535-3.02,3.223-4.68
		c0.695-1.672,1.043-3.547,1.043-5.621c0-2.07-0.348-3.945-1.043-5.617c-0.688-1.656-1.762-3.219-3.223-4.68
		s-3.023-2.535-4.68-3.223c-1.672-0.691-3.547-1.039-5.617-1.039H437.59h-26.23h-17.762v-8.867c0-1.164,0.219-2.289,0.652-3.359
		c0.449-1.113,1.094-2.098,1.926-2.934l0.086-0.063c0.824-0.797,1.75-1.418,2.801-1.855c1.074-0.453,2.215-0.684,3.426-0.684h70.293
		c4.414,0,8.539,0.805,12.383,2.402c3.836,1.598,7.32,3.965,10.445,7.094c3.129,3.125,5.492,6.605,7.094,10.449
		c1.602,3.836,2.402,7.961,2.402,12.375s-0.801,8.547-2.402,12.391c-1.594,3.816-3.961,7.301-7.105,10.43l0.012,0.012
		c-3.125,3.125-6.609,5.488-10.445,7.09s-7.969,2.402-12.383,2.402h-1.922l31.668,31.656L502.672,174.453z"/>
	<path fill-rule="evenodd" clip-rule="evenodd" fill="#464749" d="M521.488,86.906c0-1.164,0.219-2.289,0.648-3.359
		c0.449-1.113,1.094-2.098,1.934-2.934l0.078-0.063c0.828-0.797,1.758-1.418,2.805-1.855c1.07-0.453,2.215-0.684,3.426-0.684
		c1.223,0,2.363,0.23,3.438,0.684c1.016,0.43,1.938,1.051,2.773,1.855l0.078,0.063c0.84,0.836,1.484,1.813,1.934,2.93
		c0.43,1.078,0.648,2.199,0.648,3.363v93.719c0,1.176-0.219,2.293-0.648,3.371c-0.434,1.074-1.055,2.02-1.867,2.859l-0.145,0.141
		c-0.848,0.82-1.785,1.445-2.84,1.871h-0.023c-1.063,0.434-2.176,0.652-3.348,0.652s-2.293-0.219-3.371-0.652
		c-1.07-0.434-2.02-1.059-2.859-1.871l-0.141-0.141c-0.816-0.84-1.438-1.789-1.871-2.859c-0.43-1.078-0.648-2.195-0.648-3.371
		V86.906z"/>
	<path fill-rule="evenodd" clip-rule="evenodd" fill="#464749" d="M781.156,78.012c1.164,0,2.305,0.23,3.383,0.68
		c1.094,0.449,2.055,1.094,2.883,1.922l0.016,0.02c0.832,0.832,1.48,1.793,1.93,2.883c0.445,1.082,0.68,2.219,0.68,3.391
		c0,1.168-0.234,2.305-0.68,3.387c-0.457,1.113-1.109,2.082-1.93,2.902c-0.828,0.832-1.809,1.48-2.922,1.926
		c-1.074,0.434-2.203,0.652-3.359,0.652h-70.289c-2.074,0-3.949,0.348-5.625,1.039c-1.656,0.688-3.219,1.762-4.68,3.223
		l-0.008-0.008c-1.445,1.445-2.52,3.012-3.211,4.688c-0.695,1.672-1.039,3.547-1.039,5.617c0,2.074,0.344,3.949,1.039,5.621
		c0.691,1.676,1.762,3.238,3.203,4.68l0.016,0.02c1.445,1.441,3.008,2.512,4.684,3.203c1.672,0.691,3.547,1.039,5.621,1.039h46.855
		c4.414,0,8.535,0.797,12.383,2.391c3.84,1.594,7.32,3.953,10.449,7.082c3.125,3.129,5.492,6.617,7.09,10.457
		c1.602,3.844,2.402,7.969,2.402,12.367c0,4.414-0.801,8.547-2.402,12.395s-3.965,7.332-7.09,10.457h-0.02
		c-3.145,3.141-6.617,5.5-10.43,7.082c-3.848,1.598-7.969,2.395-12.383,2.395h-70.289c-1.176,0-2.301-0.219-3.367-0.652
		c-1.082-0.434-2.027-1.059-2.867-1.871l-0.141-0.141c-0.813-0.84-1.438-1.789-1.871-2.859c-0.43-1.078-0.645-2.195-0.645-3.371
		c0-1.18,0.215-2.301,0.645-3.367c0.43-1.051,1.059-1.996,1.895-2.855l0.117-0.129c0.84-0.809,1.793-1.434,2.867-1.863
		c1.066-0.438,2.191-0.656,3.367-0.656h70.289c2.074,0,3.945-0.348,5.613-1.035c1.68-0.699,3.254-1.77,4.699-3.215l-0.012-0.008
		c1.457-1.461,2.531-3.023,3.227-4.684c0.688-1.676,1.031-3.543,1.031-5.621c0-2.043-0.344-3.906-1.039-5.578
		c-0.695-1.676-1.773-3.242-3.219-4.695v-0.016c-1.438-1.445-2.996-2.52-4.676-3.211c-1.668-0.691-3.543-1.035-5.625-1.035h-46.855
		c-4.414,0-8.551-0.801-12.398-2.402c-3.844-1.598-7.328-3.965-10.457-7.09l0.008-0.012c-3.137-3.129-5.504-6.605-7.082-10.418
		c-1.598-3.848-2.395-7.988-2.395-12.402c0-4.406,0.793-8.535,2.387-12.375s3.953-7.32,7.082-10.449s6.613-5.496,10.457-7.094
		c3.852-1.598,7.984-2.402,12.398-2.402H781.156z"/>
	<path fill-rule="evenodd" clip-rule="evenodd" fill="#464749" d="M283.469,124.895h84.852h0.055
		c1.141,0.008,2.25,0.227,3.305,0.652c1.113,0.449,2.098,1.094,2.93,1.93l0.063,0.082c0.801,0.832,1.43,1.75,1.859,2.773v0.023
		c0.449,1.07,0.684,2.203,0.684,3.41c0,1.172-0.23,2.309-0.68,3.387c-0.461,1.113-1.105,2.082-1.926,2.898
		c-0.816,0.82-1.789,1.469-2.902,1.93c-1.078,0.445-2.215,0.676-3.387,0.676h-84.852v29.098h84.852c1.16,0,2.285,0.219,3.359,0.656
		c1.113,0.445,2.098,1.094,2.93,1.926l0.063,0.082c0.801,0.832,1.43,1.75,1.859,2.773v0.023c0.449,1.07,0.684,2.203,0.684,3.41
		c0,1.211-0.234,2.348-0.684,3.434c-0.438,1.047-1.063,1.973-1.859,2.797l-0.063,0.086c-0.836,0.832-1.82,1.477-2.93,1.926
		c-1.074,0.434-2.195,0.652-3.359,0.652h-93.719c-1.18,0-2.297-0.219-3.371-0.652s-2.02-1.059-2.863-1.871l-0.141-0.141
		c-0.813-0.84-1.438-1.789-1.867-2.859c-0.438-1.078-0.652-2.195-0.652-3.371v-55.73H283.469z"/>
	<path fill-rule="evenodd" clip-rule="evenodd" fill="#B45364" d="M274.602,78.012h93.719c1.172,0,2.309,0.23,3.387,0.68
		c1.09,0.449,2.055,1.094,2.883,1.922l0.02,0.02c0.824,0.832,1.477,1.793,1.926,2.883c0.449,1.082,0.68,2.219,0.68,3.391
		c0,1.168-0.23,2.305-0.68,3.387c-0.461,1.113-1.105,2.082-1.926,2.902c-0.832,0.832-1.816,1.48-2.93,1.926
		c-1.055,0.426-2.164,0.645-3.305,0.652h-0.055h-84.852h-17.762v-8.867c0-1.164,0.219-2.289,0.652-3.359
		c0.449-1.113,1.094-2.098,1.926-2.934l0.082-0.063c0.828-0.797,1.754-1.418,2.805-1.855
		C272.246,78.242,273.387,78.012,274.602,78.012z"/>
</g>
<path fill-rule="evenodd" clip-rule="evenodd" fill="#B45364" d="M341.484,228.848v7.047h22.211c0.73,0,1.414,0.277,1.93,0.801
	c0.508,0.52,0.785,1.184,0.785,1.902c0,0.734-0.281,1.406-0.793,1.926c-0.52,0.508-1.191,0.793-1.922,0.793h-22.211v7.039h22.211
	c0.73,0,1.414,0.277,1.93,0.801c0.504,0.512,0.785,1.184,0.785,1.902c0,0.73-0.273,1.398-0.785,1.914
	c-0.516,0.523-1.199,0.805-1.93,0.805h-24.918c-0.723,0-1.391-0.266-1.938-0.809c-0.508-0.52-0.777-1.184-0.777-1.91v-24.914
	c0-0.734,0.277-1.418,0.797-1.93c0.527-0.512,1.191-0.785,1.918-0.785h24.918c0.73,0,1.402,0.277,1.922,0.793
	c0.512,0.52,0.793,1.195,0.793,1.922s-0.281,1.406-0.793,1.918c-0.52,0.512-1.199,0.785-1.922,0.785H341.484L341.484,228.848z
	 M294.941,227.738c0.277-0.535,0.52-1.141,0.52-1.594c0-0.734-0.281-1.418-0.805-1.93c-0.52-0.512-1.184-0.785-1.91-0.785
	c-1.652,0-2.152,0.902-2.566,1.73l-9.969,19.852l-9.727-19.395c-0.781-1.578-1.355-2.188-2.656-2.188
	c-0.73,0-1.406,0.277-1.918,0.793c-0.633,0.648-1.211,1.898-0.504,3.32l11.973,23.879c0.574,1.152,1.316,2.355,2.906,2.355
	s2.121-1.043,2.746-2.297L294.941,227.738L294.941,227.738z M432.078,244.52v-18.375c0-0.727,0.273-1.402,0.789-1.922
	c0.516-0.516,1.188-0.793,1.914-0.793c0.734,0,1.406,0.277,1.926,0.793c0.512,0.52,0.793,1.195,0.793,1.922v24.914
	c0,0.73-0.273,1.398-0.781,1.914c-0.52,0.523-1.203,0.805-1.938,0.805c-0.688,0-1.328-0.258-1.813-0.727
	c-0.07-0.051-0.145-0.117-0.207-0.172l-20.184-20.207v18.387c0,0.727-0.27,1.391-0.809,1.941c-0.512,0.504-1.176,0.777-1.898,0.777
	c-0.73,0-1.395-0.266-1.938-0.809c-0.512-0.52-0.777-1.184-0.777-1.91v-24.914c0-0.734,0.273-1.418,0.797-1.93
	s1.188-0.785,1.918-0.785c0.707,0,1.367,0.258,1.926,0.785L432.078,244.52L432.078,244.52z M496.121,228.848v22.211
	c0,0.727-0.262,1.391-0.801,1.941c-0.516,0.504-1.18,0.777-1.906,0.777c-0.73,0-1.414-0.281-1.922-0.805
	c-0.512-0.516-0.785-1.184-0.785-1.914v-22.211h-9.742c-0.723,0-1.387-0.262-1.934-0.785c-0.508-0.52-0.781-1.191-0.781-1.918
	c0-0.734,0.273-1.418,0.797-1.93s1.188-0.785,1.918-0.785h24.91c0.734,0,1.402,0.277,1.922,0.793
	c0.516,0.52,0.797,1.195,0.797,1.922s-0.281,1.406-0.797,1.918s-1.195,0.785-1.922,0.785H496.121L496.121,228.848z M574.266,226.145
	c0-0.727,0.27-1.402,0.781-1.922c0.516-0.516,1.191-0.793,1.922-0.793s1.398,0.277,1.914,0.793c0.52,0.52,0.797,1.195,0.797,1.922
	v12.453c0,4.172-1.5,7.781-4.441,10.73c-2.945,2.953-6.559,4.449-10.73,4.449s-7.773-1.496-10.727-4.449
	c-2.949-2.949-4.441-6.555-4.441-10.73v-12.453c0-0.734,0.273-1.418,0.793-1.93c0.523-0.512,1.195-0.785,1.922-0.785
	c0.723,0,1.391,0.277,1.902,0.785c0.523,0.512,0.797,1.195,0.797,1.93v12.453c0,2.723,0.938,4.988,2.855,6.906
	c1.922,1.922,4.188,2.852,6.898,2.852c2.719,0,4.984-0.93,6.898-2.852c1.922-1.918,2.859-4.184,2.859-6.906V226.145L574.266,226.145
	z M646.211,253.023c-0.09-0.074-0.168-0.152-0.242-0.234l-11.477-11.473h-8.645v9.742c0,0.727-0.27,1.391-0.801,1.941
	c-0.516,0.504-1.18,0.777-1.906,0.777c-0.719,0-1.391-0.266-1.938-0.809c-0.5-0.52-0.773-1.184-0.773-1.91v-24.914
	c0-0.734,0.273-1.418,0.797-1.93c0.52-0.512,1.195-0.785,1.914-0.785h18.695c2.449,0,4.578,0.895,6.313,2.625
	c1.734,1.734,2.625,3.867,2.625,6.32c0,2.445-0.891,4.582-2.625,6.313c-1.656,1.652-3.68,2.543-5.988,2.621l7.867,7.867
	c0.488,0.512,0.746,1.176,0.746,1.883c0,0.73-0.277,1.398-0.785,1.914c-0.512,0.523-1.195,0.805-1.93,0.805
	C647.355,253.777,646.707,253.512,646.211,253.023L646.211,253.023z M696.941,228.848v7.047h22.207c0.738,0,1.414,0.277,1.934,0.801
	c0.508,0.52,0.781,1.184,0.781,1.902c0,0.734-0.285,1.406-0.793,1.926c-0.516,0.508-1.188,0.793-1.922,0.793h-22.207v7.039h22.207
	c0.738,0,1.414,0.277,1.934,0.801c0.508,0.512,0.781,1.184,0.781,1.902c0,0.73-0.273,1.398-0.781,1.914
	c-0.52,0.523-1.195,0.805-1.934,0.805h-24.914c-0.727,0-1.391-0.266-1.941-0.809c-0.504-0.52-0.77-1.184-0.77-1.91v-24.914
	c0-0.734,0.273-1.418,0.797-1.93c0.52-0.512,1.184-0.785,1.914-0.785h24.914c0.734,0,1.406,0.277,1.922,0.793
	c0.508,0.52,0.793,1.195,0.793,1.922s-0.285,1.406-0.793,1.918c-0.516,0.512-1.188,0.785-1.922,0.785H696.941L696.941,228.848z
	 M790.242,223.43c0.727,0,1.406,0.277,1.918,0.793c0.512,0.52,0.797,1.195,0.797,1.922s-0.285,1.406-0.797,1.918
	s-1.191,0.785-1.918,0.785h-18.691c-0.988,0-1.785,0.332-2.484,1.031c-0.703,0.703-1.035,1.5-1.035,2.496
	c0,0.988,0.332,1.785,1.035,2.484c0.699,0.703,1.496,1.035,2.484,1.035h12.461c2.449,0,4.586,0.891,6.316,2.617
	c1.73,1.738,2.629,3.867,2.629,6.32c0,2.449-0.898,4.586-2.629,6.32s-3.867,2.625-6.316,2.625h-18.684
	c-0.73,0-1.395-0.266-1.941-0.809c-0.508-0.52-0.77-1.184-0.77-1.91c0-0.719,0.262-1.383,0.797-1.926
	c0.52-0.512,1.184-0.777,1.914-0.777h18.684c0.996,0,1.797-0.332,2.488-1.035c0.703-0.699,1.039-1.496,1.039-2.488
	c0-0.988-0.34-1.789-1.039-2.484c-0.703-0.711-1.492-1.031-2.488-1.031h-12.461c-2.449,0-4.582-0.898-6.313-2.629
	c-1.734-1.73-2.621-3.867-2.621-6.313c0-2.453,0.887-4.586,2.617-6.32c1.73-1.73,3.867-2.625,6.316-2.625H790.242L790.242,223.43z
	 M625.848,228.848v7.047h15.988c0.984,0,1.785-0.332,2.488-1.035c0.703-0.699,1.031-1.496,1.031-2.484
	c0-0.996-0.328-1.793-1.031-2.496c-0.703-0.699-1.504-1.031-2.488-1.031H625.848z"/>
<path fill-rule="evenodd" clip-rule="evenodd" fill="#B45364" d="M268.059,204.121h519.637c1.297,0,2.352,1.063,2.352,2.352v0.004
	c0,1.293-1.055,2.348-2.352,2.348H268.059c-1.297,0-2.352-1.055-2.352-2.348v-0.004
	C265.707,205.184,266.762,204.121,268.059,204.121z"/>
</svg>
