<?xml version="1.0" encoding="utf-8"?>
<!-- Generator: Adobe Illustrator 16.0.0, SVG Export Plug-In . SVG Version: 6.00 Build 0)  -->
<!DOCTYPE svg PUBLIC "-//W3C//DTD SVG 1.1//EN" "http://www.w3.org/Graphics/SVG/1.1/DTD/svg11.dtd">
<svg version="1.1" id="Layer_1" xmlns="http://www.w3.org/2000/svg" xmlns:xlink="http://www.w3.org/1999/xlink" x="0px" y="0px"
	 width="527.875px" height="175.766px" viewBox="0 0 527.875 175.766" enable-background="new 0 0 527.875 175.766"
	 xml:space="preserve">
<g>
	<path fill-rule="evenodd" clip-rule="evenodd" fill="#FFFFFF" d="M296.078,110.859c-1.074-0.438-2.02-1.063-2.863-1.871
		l-0.145-0.145c-0.809-0.844-1.434-1.789-1.863-2.859c-0.441-1.078-0.656-2.195-0.656-3.367c0-1.094,0.203-2.16,0.594-3.195
		l-0.008-0.004c0.289-0.754,0.684-1.457,1.191-2.121l34.531-68.855l7.461-14.875c2.246-4.477,4.23-11.145,8.645-12.918
		C344.027,0.219,345.14,0,346.3,0c5.379,0,6.688,2.43,8.227,5.09l1.227,2.457l1.031,2.055l44.82,89.383
		c2.258,4.5,0.098,9.781-5.078,11.867c-1.074,0.438-2.195,0.656-3.359,0.656c-1.227,0-2.383-0.242-3.461-0.711
		c-0.992-0.422-1.883-1.031-2.664-1.813c-0.887-0.82-1.563-1.77-2.031-2.848c-0.281-0.645-0.477-1.309-0.594-1.984l-5.367-10.664
		h-65.004l-3.648,7.262l-1.77,3.531C305.738,110.039,301.519,113.039,296.078,110.859L296.078,110.859z M346.597,28.68
		l-23.633,47.047h47.188L346.597,28.68z"/>
	<path fill-rule="evenodd" clip-rule="evenodd" fill="#FFFFFF" d="M237.59,96.445c0.781,0.836,1.391,1.789,1.809,2.852
		c0.41,1.055,0.625,2.16,0.625,3.32c0,1.211-0.234,2.348-0.684,3.426c-0.438,1.051-1.063,1.973-1.859,2.801l-0.063,0.078
		c-0.832,0.844-1.82,1.484-2.93,1.93c-1.078,0.438-2.199,0.656-3.359,0.656c-1.223,0-2.375-0.242-3.461-0.711
		c-0.926-0.398-1.77-0.961-2.516-1.672c-0.195-0.156-0.363-0.313-0.52-0.469c-0.16-0.156-0.313-0.332-0.457-0.52L180.66,64.648
		h-34.383v37.969c0,1.172-0.219,2.289-0.648,3.367c-0.43,1.07-1.055,2.016-1.867,2.859l-0.145,0.145
		c-0.848,0.816-1.785,1.445-2.84,1.871h-0.023c-1.063,0.43-2.176,0.648-3.348,0.648s-2.293-0.219-3.367-0.648
		c-1.074-0.438-2.02-1.063-2.859-1.871l-0.145-0.145c-0.813-0.844-1.438-1.789-1.867-2.859c-0.438-1.078-0.652-2.195-0.652-3.367
		V46.883h17.762h26.23h35.191c2.07,0,3.945-0.348,5.617-1.039c1.68-0.695,3.246-1.77,4.691-3.215l-0.012-0.008
		c1.461-1.457,2.535-3.02,3.223-4.68c0.695-1.676,1.043-3.551,1.043-5.621s-0.348-3.945-1.043-5.617
		c-0.688-1.656-1.762-3.219-3.223-4.68s-3.023-2.531-4.68-3.223c-1.672-0.691-3.547-1.039-5.617-1.039h-35.191h-26.23h-17.762V8.895
		c0-1.16,0.219-2.289,0.652-3.359c0.449-1.113,1.094-2.094,1.926-2.934l0.086-0.059c0.824-0.801,1.75-1.426,2.801-1.863
		c1.074-0.445,2.215-0.68,3.426-0.68h70.293c4.414,0,8.539,0.797,12.383,2.398c3.836,1.602,7.32,3.973,10.445,7.098
		c3.129,3.125,5.492,6.605,7.094,10.449c1.602,3.836,2.402,7.961,2.402,12.375s-0.801,8.547-2.402,12.391
		c-1.594,3.816-3.961,7.297-7.105,10.43l0.012,0.008c-3.125,3.125-6.609,5.492-10.445,7.094c-3.836,1.598-7.969,2.406-12.383,2.406
		h-1.922l31.668,31.648L237.59,96.445z"/>
	<path fill-rule="evenodd" clip-rule="evenodd" fill="#FFFFFF" d="M256.406,8.895c0-1.16,0.219-2.289,0.648-3.359
		c0.449-1.113,1.094-2.094,1.934-2.934l0.078-0.059c0.828-0.801,1.758-1.426,2.805-1.863c1.07-0.445,2.214-0.68,3.425-0.68
		c1.223,0,2.363,0.234,3.438,0.68c1.016,0.43,1.938,1.055,2.773,1.863l0.078,0.059c0.84,0.836,1.484,1.816,1.934,2.93
		c0.43,1.074,0.648,2.203,0.648,3.363v93.723c0,1.172-0.219,2.289-0.648,3.367c-0.434,1.07-1.055,2.016-1.867,2.859l-0.145,0.145
		c-0.848,0.816-1.785,1.445-2.84,1.871h-0.023c-1.063,0.43-2.176,0.648-3.348,0.648s-2.292-0.219-3.371-0.648
		c-1.07-0.438-2.02-1.063-2.859-1.871l-0.141-0.145c-0.816-0.844-1.438-1.789-1.871-2.859c-0.43-1.078-0.648-2.195-0.648-3.367
		V8.895z"/>
	<path fill-rule="evenodd" clip-rule="evenodd" fill="#FFFFFF" d="M516.074,0c1.164,0,2.305,0.234,3.383,0.676
		c1.094,0.449,2.055,1.098,2.883,1.926l0.016,0.02c0.832,0.832,1.48,1.793,1.93,2.887c0.445,1.078,0.68,2.215,0.68,3.387
		c0,1.168-0.234,2.305-0.68,3.387c-0.457,1.117-1.109,2.082-1.93,2.898c-0.828,0.836-1.809,1.484-2.922,1.934
		c-1.074,0.43-2.203,0.648-3.359,0.648h-70.289c-2.074,0-3.949,0.348-5.625,1.039c-1.656,0.691-3.219,1.762-4.68,3.223l-0.008-0.008
		c-1.445,1.445-2.52,3.012-3.211,4.688c-0.695,1.672-1.039,3.547-1.039,5.617s0.344,3.945,1.039,5.621
		c0.691,1.672,1.762,3.238,3.203,4.68l0.016,0.023c1.445,1.434,3.008,2.504,4.684,3.199c1.672,0.691,3.547,1.039,5.621,1.039h46.855
		c4.414,0,8.535,0.797,12.383,2.391c3.84,1.594,7.32,3.953,10.449,7.082c3.125,3.125,5.492,6.617,7.09,10.457
		c1.602,3.844,2.402,7.969,2.402,12.371c0,4.414-0.801,8.543-2.402,12.391c-1.602,3.844-3.965,7.336-7.09,10.461h-0.02
		c-3.145,3.133-6.617,5.496-10.43,7.078c-3.848,1.598-7.969,2.395-12.383,2.395h-70.289c-1.176,0-2.301-0.219-3.367-0.648
		c-1.082-0.438-2.027-1.063-2.867-1.871l-0.141-0.145c-0.813-0.844-1.438-1.789-1.871-2.859c-0.43-1.078-0.645-2.195-0.645-3.367
		c0-1.188,0.215-2.305,0.645-3.371c0.43-1.055,1.059-2.004,1.895-2.863l0.117-0.121c0.84-0.809,1.793-1.434,2.867-1.871
		c1.066-0.434,2.191-0.648,3.367-0.648h70.289c2.074,0,3.945-0.344,5.613-1.039c1.68-0.695,3.254-1.766,4.699-3.211l-0.012-0.012
		c1.457-1.457,2.531-3.02,3.227-4.676c0.688-1.676,1.031-3.547,1.031-5.621c0-2.047-0.344-3.91-1.039-5.582
		c-0.695-1.676-1.773-3.242-3.219-4.691v-0.02c-1.438-1.445-2.996-2.52-4.676-3.215c-1.668-0.688-3.543-1.027-5.625-1.027h-46.855
		c-4.414,0-8.551-0.809-12.398-2.406c-3.844-1.602-7.328-3.969-10.457-7.094l0.008-0.008c-3.137-3.133-5.504-6.609-7.082-10.422
		c-1.598-3.848-2.395-7.984-2.395-12.398c0-4.406,0.793-8.531,2.387-12.375s3.953-7.32,7.082-10.449S429.542,4,433.386,2.398
		C437.238,0.797,441.371,0,445.785,0H516.074z"/>
	<path fill-rule="evenodd" clip-rule="evenodd" fill="#FFFFFF" d="M18.387,46.883h84.852h0.055c1.141,0.008,2.25,0.227,3.305,0.648
		c1.113,0.449,2.098,1.102,2.93,1.934l0.063,0.078c0.801,0.832,1.43,1.754,1.859,2.777v0.023c0.449,1.07,0.684,2.203,0.684,3.406
		c0,1.172-0.23,2.309-0.68,3.391c-0.461,1.109-1.105,2.082-1.926,2.898c-0.816,0.82-1.789,1.469-2.902,1.93
		c-1.078,0.445-2.215,0.68-3.387,0.68H18.387v29.094h84.852c1.16,0,2.285,0.219,3.359,0.648c1.113,0.457,2.098,1.102,2.93,1.938
		l0.063,0.078c0.801,0.828,1.43,1.75,1.859,2.777v0.02c0.449,1.07,0.684,2.207,0.684,3.414c0,1.211-0.234,2.348-0.684,3.426
		c-0.438,1.051-1.063,1.973-1.859,2.801l-0.063,0.078c-0.836,0.844-1.82,1.484-2.93,1.93c-1.074,0.438-2.195,0.656-3.359,0.656H9.52
		c-1.18,0-2.297-0.219-3.371-0.648c-1.074-0.438-2.02-1.063-2.863-1.871l-0.141-0.145c-0.813-0.844-1.438-1.789-1.867-2.859
		c-0.438-1.078-0.652-2.195-0.652-3.367V46.883H18.387z"/>
	<path fill-rule="evenodd" clip-rule="evenodd" fill="#B45364" d="M9.52,0h93.719c1.172,0,2.309,0.234,3.387,0.676
		c1.09,0.449,2.055,1.098,2.883,1.926l0.02,0.02c0.824,0.832,1.477,1.793,1.926,2.887c0.449,1.078,0.68,2.215,0.68,3.387
		c0,1.168-0.23,2.305-0.68,3.387c-0.461,1.117-1.105,2.082-1.926,2.898c-0.832,0.836-1.816,1.484-2.93,1.934
		c-1.055,0.426-2.164,0.637-3.305,0.648h-0.055H18.387H0.625V8.895c0-1.16,0.219-2.289,0.652-3.359
		c0.449-1.113,1.094-2.094,1.926-2.934l0.082-0.059C4.113,1.742,5.039,1.117,6.09,0.68C7.164,0.234,8.305,0,9.52,0z"/>
</g>
<path fill-rule="evenodd" clip-rule="evenodd" fill="#B45364" d="M76.402,150.836v7.047h22.211c0.73,0,1.414,0.281,1.93,0.797
	c0.508,0.523,0.785,1.188,0.785,1.91c0,0.727-0.281,1.406-0.793,1.918c-0.52,0.512-1.191,0.789-1.922,0.789H76.402v7.047h22.211
	c0.73,0,1.414,0.281,1.93,0.797c0.504,0.516,0.785,1.188,0.785,1.91c0,0.727-0.273,1.391-0.785,1.914
	c-0.516,0.52-1.199,0.801-1.93,0.801H73.695c-0.723,0-1.391-0.27-1.938-0.805c-0.508-0.523-0.777-1.188-0.777-1.91v-24.918
	c0-0.734,0.277-1.414,0.797-1.934c0.527-0.508,1.191-0.781,1.918-0.781h24.918c0.73,0,1.402,0.277,1.922,0.793
	c0.512,0.516,0.793,1.195,0.793,1.922s-0.281,1.406-0.793,1.918c-0.52,0.512-1.199,0.785-1.922,0.785H76.402L76.402,150.836z
	 M29.859,149.73c0.277-0.543,0.52-1.145,0.52-1.598c0-0.734-0.281-1.414-0.805-1.934c-0.52-0.508-1.184-0.781-1.91-0.781
	c-1.652,0-2.152,0.902-2.566,1.734L15.129,167l-9.727-19.395c-0.781-1.578-1.355-2.188-2.656-2.188c-0.73,0-1.406,0.277-1.918,0.793
	c-0.633,0.641-1.211,1.891-0.504,3.32l11.973,23.879c0.574,1.148,1.316,2.355,2.906,2.355s2.121-1.047,2.746-2.297L29.859,149.73
	L29.859,149.73z M166.996,166.5v-18.367c0-0.727,0.273-1.406,0.789-1.922s1.188-0.793,1.914-0.793c0.734,0,1.406,0.277,1.926,0.793
	c0.512,0.516,0.793,1.195,0.793,1.922v24.918c0,0.727-0.273,1.391-0.781,1.914c-0.52,0.52-1.203,0.801-1.938,0.801
	c-0.688,0-1.328-0.254-1.813-0.723c-0.07-0.059-0.145-0.117-0.207-0.176l-20.184-20.207v18.391c0,0.723-0.27,1.387-0.809,1.934
	c-0.512,0.508-1.176,0.781-1.898,0.781c-0.73,0-1.395-0.27-1.938-0.805c-0.512-0.523-0.777-1.188-0.777-1.91v-24.918
	c0-0.734,0.273-1.414,0.797-1.934c0.523-0.508,1.188-0.781,1.918-0.781c0.707,0,1.367,0.258,1.926,0.781L166.996,166.5
	L166.996,166.5z M231.039,150.836v22.215c0,0.723-0.262,1.387-0.801,1.934c-0.516,0.508-1.18,0.781-1.906,0.781
	c-0.73,0-1.414-0.281-1.922-0.801c-0.512-0.523-0.785-1.188-0.785-1.914v-22.215h-9.742c-0.723,0-1.387-0.262-1.934-0.785
	c-0.508-0.516-0.781-1.191-0.781-1.918c0-0.734,0.273-1.414,0.797-1.934c0.523-0.508,1.188-0.781,1.918-0.781h24.91
	c0.734,0,1.402,0.277,1.922,0.793c0.516,0.516,0.797,1.195,0.797,1.922s-0.281,1.406-0.797,1.918s-1.195,0.785-1.922,0.785H231.039
	L231.039,150.836z M309.183,148.133c0-0.727,0.27-1.406,0.781-1.922c0.516-0.516,1.191-0.793,1.922-0.793s1.398,0.277,1.914,0.793
	c0.52,0.516,0.797,1.195,0.797,1.922v12.457c0,4.168-1.5,7.777-4.441,10.727c-2.945,2.949-6.559,4.449-10.73,4.449
	s-7.773-1.5-10.727-4.449c-2.949-2.949-4.441-6.551-4.441-10.727v-12.457c0-0.734,0.273-1.414,0.793-1.934
	c0.523-0.508,1.195-0.781,1.922-0.781c0.723,0,1.391,0.277,1.902,0.781c0.523,0.52,0.797,1.199,0.797,1.934v12.457
	c0,2.719,0.938,4.984,2.855,6.902c1.922,1.922,4.188,2.852,6.898,2.852c2.719,0,4.984-0.93,6.898-2.852
	c1.922-1.918,2.859-4.184,2.859-6.902V148.133L309.183,148.133z M381.128,175.012c-0.09-0.074-0.168-0.152-0.242-0.234
	l-11.477-11.48h-8.645v9.754c0,0.723-0.27,1.387-0.801,1.934c-0.516,0.508-1.18,0.781-1.906,0.781c-0.719,0-1.391-0.27-1.938-0.805
	c-0.5-0.523-0.773-1.188-0.773-1.91v-24.918c0-0.734,0.273-1.414,0.797-1.934c0.52-0.508,1.195-0.781,1.914-0.781h18.695
	c2.449,0,4.578,0.895,6.313,2.629c1.734,1.73,2.625,3.867,2.625,6.316c0,2.441-0.891,4.586-2.625,6.313
	c-1.656,1.652-3.68,2.543-5.988,2.621l7.867,7.863c0.488,0.52,0.746,1.184,0.746,1.891c0,0.727-0.277,1.391-0.785,1.914
	c-0.512,0.52-1.195,0.801-1.93,0.801C382.273,175.766,381.625,175.5,381.128,175.012L381.128,175.012z M431.859,150.836v7.047
	h22.207c0.738,0,1.414,0.281,1.934,0.797c0.508,0.523,0.781,1.188,0.781,1.91c0,0.727-0.285,1.406-0.793,1.918
	c-0.516,0.512-1.188,0.789-1.922,0.789h-22.207v7.047h22.207c0.738,0,1.414,0.281,1.934,0.797c0.508,0.516,0.781,1.188,0.781,1.91
	c0,0.727-0.273,1.391-0.781,1.914c-0.52,0.52-1.195,0.801-1.934,0.801h-24.914c-0.727,0-1.391-0.27-1.941-0.805
	c-0.504-0.523-0.77-1.188-0.77-1.91v-24.918c0-0.734,0.273-1.414,0.797-1.934c0.52-0.508,1.184-0.781,1.914-0.781h24.914
	c0.734,0,1.406,0.277,1.922,0.793c0.508,0.516,0.793,1.195,0.793,1.922s-0.285,1.406-0.793,1.918
	c-0.516,0.512-1.188,0.785-1.922,0.785H431.859L431.859,150.836z M525.16,145.418c0.727,0,1.406,0.277,1.918,0.793
	s0.797,1.195,0.797,1.922s-0.285,1.406-0.797,1.918s-1.191,0.785-1.918,0.785h-18.691c-0.988,0-1.785,0.336-2.484,1.031
	c-0.703,0.703-1.035,1.5-1.035,2.496c0,0.992,0.332,1.785,1.035,2.484c0.699,0.703,1.496,1.035,2.484,1.035h12.461
	c2.449,0,4.586,0.891,6.316,2.617c1.73,1.734,2.629,3.867,2.629,6.32c0,2.449-0.898,4.59-2.629,6.32s-3.867,2.625-6.316,2.625
	h-18.684c-0.73,0-1.395-0.27-1.941-0.805c-0.508-0.523-0.77-1.188-0.77-1.91s0.262-1.387,0.797-1.93
	c0.52-0.512,1.184-0.777,1.914-0.777h18.684c0.996,0,1.797-0.332,2.488-1.035c0.703-0.699,1.039-1.492,1.039-2.488
	c0-0.988-0.34-1.789-1.039-2.484c-0.703-0.711-1.492-1.039-2.488-1.039h-12.461c-2.449,0-4.582-0.891-6.313-2.621
	c-1.734-1.727-2.621-3.871-2.621-6.313c0-2.449,0.887-4.586,2.617-6.316c1.73-1.734,3.867-2.629,6.316-2.629H525.16L525.16,145.418z
	 M360.765,150.836v7.047h15.988c0.984,0,1.785-0.332,2.488-1.035c0.703-0.699,1.031-1.492,1.031-2.484
	c0-0.996-0.328-1.793-1.031-2.496c-0.703-0.695-1.504-1.031-2.488-1.031H360.765z"/>
<path fill-rule="evenodd" clip-rule="evenodd" fill="#B45364" d="M2.977,126.109h519.636c1.297,0,2.352,1.055,2.352,2.352l0,0
	c0,1.293-1.055,2.348-2.352,2.348H2.977c-1.297,0-2.352-1.055-2.352-2.348l0,0C0.625,127.164,1.68,126.109,2.977,126.109z"/>
</svg>
