<?xml version="1.0" encoding="utf-8"?>
<!-- Generator: Adobe Illustrator 16.0.0, SVG Export Plug-In . SVG Version: 6.00 Build 0)  -->
<!DOCTYPE svg PUBLIC "-//W3C//DTD SVG 1.1//EN" "http://www.w3.org/Graphics/SVG/1.1/DTD/svg11.dtd">
<svg version="1.1" id="Layer_1" xmlns="http://www.w3.org/2000/svg" xmlns:xlink="http://www.w3.org/1999/xlink" x="0px" y="0px"
	 width="527.875px" height="175.766px" viewBox="0 0 527.875 175.766" enable-background="new 0 0 527.875 175.766"
	 xml:space="preserve">
<g>
	<path fill-rule="evenodd" clip-rule="evenodd" fill="#464749" d="M296.078,110.855c-1.074-0.434-2.02-1.059-2.863-1.871
		l-0.145-0.141c-0.809-0.84-1.434-1.789-1.863-2.859c-0.441-1.078-0.656-2.195-0.656-3.371c0-1.094,0.203-2.156,0.594-3.191
		l-0.008-0.008c0.289-0.75,0.684-1.453,1.191-2.117l34.531-68.859l7.461-14.867c2.246-4.48,4.23-11.148,8.645-12.922
		C344.027,0.219,345.141,0,346.301,0c5.379,0,6.688,2.43,8.227,5.094l1.227,2.457l1.031,2.055l44.82,89.379
		c2.258,4.5,0.098,9.781-5.078,11.871c-1.074,0.434-2.195,0.652-3.359,0.652c-1.227,0-2.383-0.242-3.461-0.703
		c-0.992-0.43-1.883-1.039-2.664-1.82c-0.887-0.82-1.563-1.766-2.031-2.844c-0.281-0.648-0.477-1.313-0.594-1.988l-5.367-10.664
		h-65.004l-3.648,7.266l-1.77,3.527C305.738,110.039,301.52,113.039,296.078,110.855L296.078,110.855z M346.598,28.68
		l-23.633,47.047h47.188L346.598,28.68z"/>
	<path fill-rule="evenodd" clip-rule="evenodd" fill="#464749" d="M237.59,96.441c0.781,0.848,1.391,1.793,1.805,2.852
		s0.629,2.164,0.629,3.32c0,1.211-0.238,2.348-0.684,3.434c-0.438,1.047-1.063,1.973-1.859,2.797l-0.063,0.086
		c-0.836,0.832-1.82,1.477-2.93,1.926c-1.074,0.434-2.199,0.652-3.359,0.652c-1.227,0-2.379-0.242-3.461-0.703
		c-0.93-0.402-1.77-0.969-2.516-1.68c-0.195-0.156-0.367-0.313-0.523-0.469s-0.309-0.336-0.457-0.52l-43.516-43.492h-34.379v37.969
		c0,1.176-0.215,2.293-0.648,3.371c-0.434,1.074-1.059,2.02-1.867,2.859l-0.148,0.141c-0.844,0.82-1.785,1.445-2.836,1.871h-0.02
		c-1.07,0.434-2.184,0.652-3.348,0.652c-1.18,0-2.297-0.219-3.371-0.652s-2.02-1.059-2.859-1.871l-0.145-0.141
		c-0.813-0.84-1.438-1.789-1.867-2.859c-0.438-1.078-0.652-2.195-0.652-3.371v-55.73h17.762h26.23h35.191
		c2.074,0,3.945-0.348,5.617-1.039c1.68-0.695,3.246-1.766,4.691-3.211l-0.012-0.012c1.461-1.457,2.539-3.02,3.223-4.68
		c0.695-1.672,1.043-3.547,1.043-5.621c0-2.07-0.348-3.945-1.043-5.617c-0.684-1.656-1.762-3.219-3.223-4.68
		c-1.457-1.461-3.02-2.535-4.68-3.223c-1.672-0.691-3.543-1.039-5.617-1.039h-35.191h-26.23h-17.762V8.895
		c0-1.164,0.219-2.289,0.652-3.359c0.449-1.113,1.094-2.098,1.926-2.934l0.086-0.063c0.824-0.797,1.75-1.418,2.801-1.855
		C135.055,0.23,136.195,0,137.41,0h70.289c4.414,0,8.539,0.805,12.379,2.402s7.324,3.965,10.449,7.094
		c3.125,3.125,5.492,6.605,7.09,10.449c1.602,3.836,2.406,7.961,2.406,12.375s-0.805,8.547-2.402,12.391
		c-1.59,3.816-3.961,7.301-7.105,10.43l0.012,0.012c-3.125,3.125-6.609,5.488-10.449,7.09c-3.836,1.602-7.961,2.402-12.379,2.402
		h-1.922l31.672,31.656L237.59,96.441z"/>
	<path fill-rule="evenodd" clip-rule="evenodd" fill="#464749" d="M256.406,8.895c0-1.164,0.219-2.289,0.652-3.359
		c0.449-1.113,1.094-2.098,1.926-2.934l0.086-0.063c0.824-0.797,1.75-1.418,2.801-1.855C262.945,0.23,264.086,0,265.301,0
		s2.355,0.23,3.43,0.684c1.023,0.43,1.941,1.051,2.777,1.855l0.078,0.063c0.84,0.836,1.484,1.813,1.934,2.93
		c0.43,1.078,0.648,2.199,0.648,3.363v93.719c0,1.176-0.219,2.293-0.648,3.371c-0.434,1.074-1.055,2.02-1.867,2.859l-0.145,0.141
		c-0.848,0.82-1.789,1.445-2.84,1.871h-0.02c-1.066,0.434-2.18,0.652-3.348,0.652c-1.18,0-2.297-0.219-3.371-0.652
		s-2.02-1.059-2.859-1.871l-0.145-0.141c-0.813-0.84-1.438-1.789-1.867-2.859c-0.438-1.078-0.652-2.195-0.652-3.371V8.895z"/>
	<path fill-rule="evenodd" clip-rule="evenodd" fill="#464749" d="M516.074,0c1.164,0,2.305,0.23,3.383,0.68
		c1.094,0.449,2.055,1.094,2.883,1.922l0.016,0.02c0.832,0.832,1.48,1.793,1.93,2.883c0.445,1.082,0.68,2.219,0.68,3.391
		c0,1.168-0.234,2.305-0.68,3.387c-0.457,1.113-1.109,2.082-1.93,2.902c-0.828,0.832-1.809,1.48-2.922,1.926
		c-1.074,0.434-2.203,0.652-3.359,0.652h-70.289c-2.074,0-3.949,0.348-5.625,1.039c-1.656,0.688-3.219,1.762-4.68,3.223
		l-0.008-0.008c-1.445,1.445-2.52,3.012-3.211,4.688c-0.695,1.672-1.039,3.547-1.039,5.617c0,2.074,0.344,3.949,1.039,5.621
		c0.691,1.676,1.762,3.238,3.203,4.68l0.016,0.02c1.445,1.441,3.008,2.512,4.684,3.203c1.672,0.691,3.547,1.039,5.621,1.039h46.855
		c4.414,0,8.535,0.797,12.383,2.391c3.84,1.594,7.32,3.953,10.449,7.082c3.125,3.129,5.492,6.617,7.09,10.457
		c1.602,3.844,2.402,7.969,2.402,12.367c0,4.414-0.801,8.551-2.402,12.395c-1.602,3.848-3.965,7.332-7.09,10.457h-0.02
		c-3.145,3.141-6.617,5.5-10.43,7.082c-3.848,1.598-7.969,2.395-12.383,2.395h-70.289c-1.176,0-2.301-0.219-3.367-0.652
		c-1.082-0.434-2.027-1.059-2.867-1.871l-0.141-0.141c-0.813-0.84-1.438-1.789-1.871-2.859c-0.43-1.078-0.645-2.195-0.645-3.371
		c0-1.18,0.215-2.301,0.645-3.367c0.43-1.051,1.059-1.996,1.895-2.855l0.117-0.129c0.84-0.809,1.793-1.434,2.867-1.863
		c1.066-0.438,2.191-0.656,3.367-0.656h70.289c2.074,0,3.945-0.348,5.613-1.035c1.68-0.699,3.254-1.77,4.699-3.215l-0.012-0.012
		c1.457-1.457,2.531-3.02,3.227-4.68c0.688-1.672,1.031-3.543,1.031-5.621c0-2.043-0.344-3.906-1.039-5.578
		c-0.695-1.676-1.773-3.242-3.219-4.695v-0.016c-1.438-1.445-2.996-2.52-4.676-3.211c-1.668-0.691-3.543-1.035-5.625-1.035h-46.855
		c-4.414,0-8.551-0.801-12.398-2.402c-3.844-1.598-7.328-3.965-10.457-7.09l0.008-0.012c-3.137-3.129-5.504-6.605-7.082-10.418
		c-1.598-3.848-2.395-7.988-2.395-12.402c0-4.406,0.793-8.535,2.387-12.375s3.953-7.32,7.082-10.449S429.543,4,433.387,2.402
		C437.238,0.805,441.371,0,445.785,0H516.074z"/>
	<path fill-rule="evenodd" clip-rule="evenodd" fill="#464749" d="M18.387,46.883h84.852h0.055c1.141,0.008,2.25,0.227,3.305,0.652
		c1.113,0.449,2.098,1.094,2.93,1.93l0.063,0.082c0.801,0.832,1.43,1.75,1.859,2.773v0.023c0.449,1.07,0.684,2.203,0.684,3.41
		c0,1.172-0.23,2.309-0.68,3.387c-0.461,1.113-1.105,2.082-1.926,2.898c-0.816,0.82-1.789,1.469-2.902,1.93
		c-1.078,0.445-2.215,0.676-3.387,0.676H18.387v29.098h84.852c1.16,0,2.285,0.219,3.359,0.656c1.113,0.445,2.098,1.094,2.93,1.926
		l0.063,0.082c0.801,0.832,1.43,1.75,1.859,2.773v0.023c0.449,1.07,0.684,2.203,0.684,3.41c0,1.211-0.234,2.348-0.684,3.434
		c-0.438,1.047-1.063,1.973-1.859,2.797l-0.063,0.086c-0.836,0.832-1.82,1.477-2.93,1.926c-1.074,0.434-2.195,0.652-3.359,0.652
		H9.52c-1.18,0-2.297-0.219-3.371-0.652s-2.02-1.059-2.863-1.871l-0.141-0.141c-0.813-0.84-1.438-1.789-1.867-2.859
		c-0.438-1.078-0.652-2.195-0.652-3.371v-55.73H18.387z"/>
	<path fill-rule="evenodd" clip-rule="evenodd" fill="#B45364" d="M9.52,0h93.719c1.172,0,2.309,0.23,3.387,0.68
		c1.09,0.449,2.055,1.094,2.883,1.922l0.02,0.02c0.824,0.832,1.477,1.793,1.926,2.883c0.449,1.082,0.68,2.219,0.68,3.391
		c0,1.168-0.23,2.305-0.68,3.387c-0.461,1.113-1.105,2.082-1.926,2.902c-0.832,0.832-1.816,1.48-2.93,1.926
		c-1.055,0.426-2.164,0.645-3.305,0.652h-0.055H18.387H0.625V8.895c0-1.164,0.219-2.289,0.652-3.359
		c0.449-1.113,1.094-2.098,1.926-2.934l0.082-0.063C4.113,1.742,5.039,1.121,6.09,0.684C7.164,0.23,8.305,0,9.52,0z"/>
</g>
<path fill-rule="evenodd" clip-rule="evenodd" fill="#B45364" d="M76.402,150.836v7.047h22.211c0.73,0,1.414,0.277,1.93,0.801
	c0.508,0.52,0.785,1.184,0.785,1.902c0,0.734-0.281,1.406-0.793,1.926c-0.52,0.508-1.191,0.793-1.922,0.793H76.402v7.039h22.211
	c0.73,0,1.414,0.277,1.93,0.801c0.504,0.512,0.785,1.184,0.785,1.902c0,0.73-0.273,1.398-0.785,1.914
	c-0.516,0.523-1.199,0.805-1.93,0.805H73.695c-0.723,0-1.391-0.266-1.938-0.809c-0.508-0.52-0.777-1.184-0.777-1.91v-24.914
	c0-0.734,0.277-1.418,0.797-1.93c0.527-0.512,1.191-0.785,1.918-0.785h24.918c0.73,0,1.402,0.277,1.922,0.793
	c0.512,0.52,0.793,1.195,0.793,1.922s-0.281,1.406-0.793,1.918c-0.52,0.512-1.199,0.785-1.922,0.785H76.402L76.402,150.836z
	 M29.859,149.727c0.277-0.535,0.52-1.141,0.52-1.594c0-0.734-0.281-1.418-0.805-1.93c-0.52-0.512-1.184-0.785-1.91-0.785
	c-1.652,0-2.152,0.902-2.566,1.73L15.129,167l-9.727-19.395c-0.781-1.578-1.355-2.188-2.656-2.188c-0.73,0-1.406,0.277-1.918,0.793
	c-0.633,0.648-1.211,1.898-0.504,3.32l11.973,23.879c0.574,1.152,1.316,2.355,2.906,2.355s2.121-1.043,2.746-2.297L29.859,149.727
	L29.859,149.727z M167,166.508v-18.375c0-0.727,0.27-1.402,0.785-1.922c0.516-0.516,1.188-0.793,1.918-0.793
	s1.406,0.277,1.918,0.793c0.516,0.52,0.797,1.195,0.797,1.922v24.914c0,0.73-0.273,1.398-0.781,1.914
	c-0.516,0.523-1.199,0.805-1.934,0.805c-0.691,0-1.328-0.258-1.816-0.727c-0.074-0.051-0.145-0.117-0.207-0.172l-20.184-20.207
	v18.387c0,0.727-0.27,1.391-0.809,1.941c-0.516,0.504-1.176,0.777-1.902,0.777s-1.391-0.266-1.934-0.809
	c-0.512-0.52-0.777-1.184-0.777-1.91v-24.914c0-0.734,0.277-1.418,0.797-1.93c0.523-0.512,1.188-0.785,1.914-0.785
	c0.711,0,1.375,0.258,1.926,0.785L167,166.508L167,166.508z M231.043,150.836v22.211c0,0.727-0.266,1.391-0.805,1.941
	c-0.516,0.504-1.18,0.777-1.906,0.777s-1.41-0.281-1.926-0.805c-0.508-0.516-0.781-1.184-0.781-1.914v-22.211h-9.746
	c-0.723,0-1.383-0.262-1.926-0.785c-0.516-0.52-0.789-1.191-0.789-1.918c0-0.734,0.281-1.418,0.801-1.93s1.188-0.785,1.914-0.785
	h24.914c0.73,0,1.402,0.277,1.922,0.793c0.516,0.52,0.793,1.195,0.793,1.922s-0.277,1.406-0.793,1.918s-1.195,0.785-1.922,0.785
	H231.043L231.043,150.836z M309.184,148.133c0-0.727,0.27-1.402,0.781-1.922c0.516-0.516,1.191-0.793,1.922-0.793
	s1.398,0.277,1.914,0.793c0.52,0.52,0.797,1.195,0.797,1.922v12.453c0,4.172-1.5,7.781-4.441,10.73
	c-2.945,2.953-6.559,4.449-10.73,4.449s-7.773-1.496-10.727-4.449c-2.949-2.949-4.441-6.555-4.441-10.73v-12.453
	c0-0.734,0.273-1.418,0.793-1.93c0.523-0.512,1.195-0.785,1.922-0.785c0.723,0,1.391,0.277,1.902,0.785
	c0.523,0.512,0.797,1.195,0.797,1.93v12.453c0,2.723,0.938,4.988,2.855,6.906c1.922,1.922,4.188,2.852,6.898,2.852
	c2.719,0,4.984-0.93,6.898-2.852c1.922-1.918,2.859-4.184,2.859-6.906V148.133L309.184,148.133z M381.129,175.012
	c-0.09-0.074-0.168-0.152-0.242-0.234l-11.477-11.473h-8.645v9.742c0,0.727-0.27,1.391-0.801,1.941
	c-0.516,0.504-1.18,0.777-1.906,0.777c-0.719,0-1.391-0.266-1.938-0.809c-0.5-0.52-0.773-1.184-0.773-1.91v-24.914
	c0-0.734,0.273-1.418,0.797-1.93c0.52-0.512,1.195-0.785,1.914-0.785h18.695c2.449,0,4.578,0.895,6.313,2.625
	c1.734,1.734,2.625,3.867,2.625,6.32c0,2.445-0.891,4.582-2.625,6.313c-1.656,1.652-3.68,2.543-5.988,2.621l7.867,7.867
	c0.488,0.512,0.746,1.176,0.746,1.883c0,0.73-0.277,1.398-0.785,1.914c-0.512,0.523-1.195,0.805-1.93,0.805
	C382.273,175.766,381.625,175.5,381.129,175.012L381.129,175.012z M431.859,150.836v7.047h22.207c0.738,0,1.414,0.277,1.934,0.801
	c0.508,0.52,0.781,1.184,0.781,1.902c0,0.734-0.285,1.406-0.793,1.926c-0.516,0.508-1.188,0.793-1.922,0.793h-22.207v7.039h22.207
	c0.738,0,1.414,0.277,1.934,0.801c0.508,0.512,0.781,1.184,0.781,1.902c0,0.73-0.273,1.398-0.781,1.914
	c-0.52,0.523-1.195,0.805-1.934,0.805h-24.914c-0.727,0-1.391-0.266-1.941-0.809c-0.504-0.52-0.77-1.184-0.77-1.91v-24.914
	c0-0.734,0.273-1.418,0.797-1.93c0.52-0.512,1.184-0.785,1.914-0.785h24.914c0.734,0,1.406,0.277,1.922,0.793
	c0.508,0.52,0.793,1.195,0.793,1.922s-0.285,1.406-0.793,1.918c-0.516,0.512-1.188,0.785-1.922,0.785H431.859L431.859,150.836z
	 M525.16,145.418c0.727,0,1.406,0.277,1.918,0.793c0.512,0.52,0.797,1.195,0.797,1.922s-0.285,1.406-0.797,1.918
	s-1.191,0.785-1.918,0.785h-18.691c-0.988,0-1.785,0.332-2.484,1.031c-0.703,0.703-1.035,1.5-1.035,2.496
	c0,0.988,0.332,1.785,1.035,2.484c0.699,0.703,1.496,1.035,2.484,1.035h12.461c2.449,0,4.586,0.891,6.316,2.617
	c1.73,1.738,2.629,3.867,2.629,6.32c0,2.449-0.898,4.586-2.629,6.32s-3.867,2.625-6.316,2.625h-18.684
	c-0.73,0-1.395-0.266-1.941-0.809c-0.508-0.52-0.77-1.184-0.77-1.91c0-0.719,0.262-1.383,0.797-1.926
	c0.52-0.512,1.184-0.777,1.914-0.777h18.684c0.996,0,1.797-0.332,2.488-1.035c0.703-0.699,1.039-1.496,1.039-2.488
	c0-0.988-0.34-1.789-1.039-2.484c-0.703-0.711-1.492-1.031-2.488-1.031h-12.461c-2.449,0-4.582-0.898-6.313-2.629
	c-1.734-1.73-2.621-3.867-2.621-6.313c0-2.453,0.887-4.586,2.617-6.32c1.73-1.73,3.867-2.625,6.316-2.625H525.16L525.16,145.418z
	 M360.766,150.836v7.047h15.988c0.984,0,1.785-0.332,2.488-1.035c0.703-0.699,1.031-1.496,1.031-2.484
	c0-0.996-0.328-1.793-1.031-2.496c-0.703-0.699-1.504-1.031-2.488-1.031H360.766z"/>
<path fill-rule="evenodd" clip-rule="evenodd" fill="#B45364" d="M2.977,126.109h519.637c1.297,0,2.352,1.063,2.352,2.352v0.004
	c0,1.293-1.055,2.348-2.352,2.348H2.977c-1.297,0-2.352-1.055-2.352-2.348v-0.004C0.625,127.172,1.68,126.109,2.977,126.109z"/>
</svg>
